<?xml version="1.0" encoding="utf-8"?>
<!-- Generator: Adobe Illustrator 27.0.0, SVG Export Plug-In . SVG Version: 6.00 Build 0)  -->
<svg version="1.1" id="Layer_1" xmlns="http://www.w3.org/2000/svg" xmlns:xlink="http://www.w3.org/1999/xlink" x="0px" y="0px"
	 viewBox="0 0 36 36" style="enable-background:new 0 0 36 36;" xml:space="preserve">
<style type="text/css">
	.st0{fill:#FFFFFF;}
</style>
<g>
	<circle class="st0" cx="18" cy="18" r="18"/>
	<path d="M28.5,12.7c-0.3-0.9-1-1.7-1.9-1.9c-1.7-0.5-8.6-0.5-8.6-0.5s-6.8,0-8.6,0.5c-0.9,0.3-1.7,1-1.9,1.9
		C7.1,14.4,7.1,18,7.1,18s0,3.6,0.5,5.3c0.3,0.9,1,1.7,1.9,1.9c1.7,0.5,8.6,0.5,8.6,0.5s6.8,0,8.6-0.5c0.9-0.3,1.7-1,1.9-1.9
		c0.5-1.7,0.5-5.3,0.5-5.3S28.9,14.4,28.5,12.7z M15.8,21.3v-6.5l5.7,3.3L15.8,21.3L15.8,21.3z"/>
</g>
</svg>
