<?xml version="1.0" encoding="utf-8"?>
<!-- Generator: Adobe Illustrator 27.0.0, SVG Export Plug-In . SVG Version: 6.00 Build 0)  -->
<svg version="1.1" id="Layer_1" xmlns="http://www.w3.org/2000/svg" xmlns:xlink="http://www.w3.org/1999/xlink" x="0px" y="0px"
	 viewBox="0 0 36 36" style="enable-background:new 0 0 36 36;" xml:space="preserve">
<style type="text/css">
	.st0{fill:#FFFFFF;}
</style>
<g>
	<circle class="st0" cx="18" cy="18" r="18"/>
	<path d="M18,12.9c-2.8,0-5.1,2.3-5.1,5.1s2.3,5.1,5.1,5.1s5.1-2.3,5.1-5.1S20.8,12.9,18,12.9z M18,21.3c-1.8,0-3.3-1.5-3.3-3.3
		s1.5-3.3,3.3-3.3s3.3,1.5,3.3,3.3S19.8,21.3,18,21.3L18,21.3z M24.5,12.7c0,0.7-0.5,1.2-1.2,1.2c-0.7,0-1.2-0.5-1.2-1.2
		s0.5-1.2,1.2-1.2C23.9,11.5,24.5,12.1,24.5,12.7z M27.8,13.9c-0.1-1.6-0.4-3-1.6-4.1c-1.2-1.2-2.6-1.5-4.1-1.6
		c-1.6-0.1-6.5-0.1-8.2,0c-1.6,0.1-3,0.4-4.1,1.6s-1.5,2.6-1.6,4.1c-0.1,1.6-0.1,6.5,0,8.2c0.1,1.6,0.4,3,1.6,4.1
		c1.2,1.2,2.6,1.5,4.1,1.6c1.6,0.1,6.5,0.1,8.2,0c1.6-0.1,3-0.4,4.1-1.6c1.2-1.2,1.5-2.6,1.6-4.1C27.9,20.4,27.9,15.6,27.8,13.9
		L27.8,13.9z M25.7,23.8c-0.3,0.9-1,1.5-1.9,1.9c-1.3,0.5-4.4,0.4-5.8,0.4c-1.4,0-4.5,0.1-5.8-0.4c-0.9-0.3-1.5-1-1.9-1.9
		c-0.5-1.3-0.4-4.4-0.4-5.8s-0.1-4.5,0.4-5.8c0.3-0.9,1-1.5,1.9-1.9c1.3-0.5,4.4-0.4,5.8-0.4c1.4,0,4.5-0.1,5.8,0.4
		c0.9,0.3,1.5,1,1.9,1.9c0.5,1.3,0.4,4.4,0.4,5.8S26.2,22.5,25.7,23.8z"/>
</g>
</svg>
