<?xml version="1.0" encoding="utf-8"?>
<!-- Generator: Adobe Illustrator 27.0.0, SVG Export Plug-In . SVG Version: 6.00 Build 0)  -->
<svg version="1.1" id="Layer_1" xmlns="http://www.w3.org/2000/svg" xmlns:xlink="http://www.w3.org/1999/xlink" x="0px" y="0px"
	 viewBox="0 0 81.6 35.8" style="enable-background:new 0 0 81.6 35.8;" xml:space="preserve">
<style type="text/css">
	.st0{fill:#120A08;}
</style>
<g id="layer1" transform="translate(-115.58 -322.442)">
	<path id="circle828" class="st0" d="M156.4,322.4c-6.1,0-11.8,3.1-15.1,8.3h-25.7l2.6,2.6H140c-0.4,1-0.7,2-1,3h-17.9l2.5,2.5h14.9
		c0,0.5-0.1,1-0.1,1.6c0,0.5,0,1,0.1,1.4h-11.9l2.5,2.5h9.8c0.2,1,0.5,2,0.9,3h-7.7l2.6,2.6h6.5c5.2,8.4,16.2,10.9,24.6,5.7
		c2.3-1.4,4.2-3.4,5.7-5.7h6.5l2.6-2.6h-7.7c0.4-1,0.7-2,0.9-3h9.8l2.5-2.5h-11.9c0-0.5,0.1-1,0.1-1.4c0-0.5,0-1-0.1-1.6h14.9
		l2.5-2.5h-17.9c-0.2-1-0.6-2-1-3h21.8l2.6-2.6h-25.7C168.2,325.6,162.5,322.4,156.4,322.4L156.4,322.4z M156.4,324.9
		c8.5,0,15.5,6.9,15.5,15.5c0,8.5-6.9,15.5-15.5,15.5c-8.5,0-15.5-6.9-15.5-15.5l0,0C140.9,331.8,147.8,324.9,156.4,324.9z
		 M144.1,336.3v8h1.7V338l1.8,6.3h1.7l1.8-6.3v6.3h1.7v-8H150l-1.6,5.5l-1.6-5.5H144.1z M154.4,336.3v8h1.8v-8H154.4z M158,336.3v8
		h1.7v-5.2l3.6,5.2h1.8v-8h-1.7v5.4l-3.6-5.4H158z M166.9,336.3v8h1.8v-8H166.9z"/>
</g>
</svg>
