<?xml version="1.0" encoding="utf-8"?>
<!-- Generator: Adobe Illustrator 27.1.0, SVG Export Plug-In . SVG Version: 6.00 Build 0)  -->
<svg version="1.1" id="Layer_1" xmlns="http://www.w3.org/2000/svg" xmlns:xlink="http://www.w3.org/1999/xlink" x="0px" y="0px"
	 viewBox="0 0 207 36" style="enable-background:new 0 0 207 36;" xml:space="preserve">
<style type="text/css">
	.st0{fill:#FFFFFF;}
</style>
<g id="Group_1220" transform="translate(-540 -3971)">
	<g id="icons-fb" transform="translate(597 3971)">
		<circle id="Ellipse_1" class="st0" cx="18" cy="18" r="18"/>
		<path id="Path_9" d="M23.3,19.4l0.6-4.1H20v-2.7c-0.1-1.1,0.7-2.1,1.8-2.2c0.2,0,0.3,0,0.5,0h1.8V7C23,6.8,22,6.7,20.9,6.7
			c-3.2,0-5.3,2-5.3,5.5v3.1H12v4.1h3.6v9.9H20v-9.9H23.3z"/>
	</g>
	<g id="icons-ig" transform="translate(540 3971)">
		<circle id="Ellipse_2" class="st0" cx="18" cy="18" r="18"/>
		<path id="Path_10" d="M18,12.9c-2.8,0-5.1,2.3-5.1,5.1s2.3,5.1,5.1,5.1s5.1-2.3,5.1-5.1C23.1,15.2,20.8,12.9,18,12.9z M18,21.3
			c-1.8,0-3.3-1.5-3.3-3.3c0-1.8,1.5-3.3,3.3-3.3c1.8,0,3.3,1.5,3.3,3.3c0,0,0,0,0,0C21.3,19.8,19.8,21.3,18,21.3z M24.5,12.7
			c0,0.7-0.5,1.2-1.2,1.2c-0.7,0-1.2-0.5-1.2-1.2c0-0.7,0.5-1.2,1.2-1.2C23.9,11.5,24.5,12.1,24.5,12.7z M27.8,13.9
			c0.1-1.5-0.5-3-1.6-4.1c-1.1-1-2.6-1.6-4.1-1.6c-1.6-0.1-6.5-0.1-8.2,0c-1.5-0.1-3,0.5-4.1,1.6c-1,1.1-1.6,2.6-1.6,4.1
			c-0.1,1.6-0.1,6.5,0,8.2c-0.1,1.5,0.5,3,1.6,4.1c1.1,1,2.6,1.6,4.1,1.6c1.6,0.1,6.5,0.1,8.2,0c1.5,0.1,3-0.5,4.1-1.6
			c1-1.1,1.6-2.6,1.6-4.1C27.9,20.4,27.9,15.6,27.8,13.9z M25.7,23.8c-0.3,0.9-1,1.6-1.9,1.9c-1.3,0.5-4.4,0.4-5.8,0.4
			s-4.5,0.1-5.8-0.4c-0.9-0.3-1.6-1-1.9-1.9c-0.5-1.3-0.4-4.4-0.4-5.8s-0.1-4.5,0.4-5.8c0.3-0.9,1-1.6,1.9-1.9
			c1.3-0.5,4.4-0.4,5.8-0.4s4.5-0.1,5.8,0.4c0.9,0.3,1.6,1,1.9,1.9c0.5,1.3,0.4,4.4,0.4,5.8S26.2,22.5,25.7,23.8z"/>
	</g>
	<g id="icons-tw" transform="translate(654 3971)">
		<circle id="Ellipse_3" class="st0" cx="18" cy="18" r="18"/>
		<path id="Path_11" d="M26.1,13.8v0.5c0,6.5-5.2,11.9-11.8,11.9c0,0-0.1,0-0.1,0c-2.3,0-4.5-0.6-6.4-1.9c0.3,0,0.7,0.1,1,0.1
			c1.9,0,3.7-0.6,5.2-1.8c-1.8,0-3.4-1.2-3.9-2.9c0.3,0,0.5,0.1,0.8,0.1c0.4,0,0.8-0.1,1.1-0.1c-2-0.4-3.4-2.1-3.4-4.1v-0.1
			c0.6,0.3,1.2,0.5,1.9,0.5c-1.2-0.8-1.9-2.1-1.9-3.5c0-0.7,0.2-1.5,0.6-2.1c2.1,2.6,5.3,4.2,8.6,4.4c-0.1-0.3-0.1-0.7-0.1-1
			c0-2.3,1.9-4.2,4.2-4.2c1.2,0,2.3,0.5,3.1,1.3c0.9-0.2,1.9-0.5,2.7-1c-0.3,1-0.9,1.8-1.8,2.3c0.8-0.1,1.6-0.3,2.4-0.6
			C27.7,12.5,27,13.2,26.1,13.8z"/>
	</g>
	<g id="icons-yt" transform="translate(711 3971)">
		<circle id="Ellipse_4" class="st0" cx="18" cy="18" r="18"/>
		<path id="Path_12" d="M28.5,12.7c-0.3-0.9-1-1.6-1.9-1.9c-1.7-0.5-8.6-0.5-8.6-0.5s-6.8,0-8.6,0.5c-0.9,0.3-1.6,1-1.9,1.9
			c-0.3,1.8-0.4,3.5-0.4,5.3c0,1.8,0.2,3.6,0.5,5.3c0.3,0.9,1,1.6,1.9,1.9c1.7,0.5,8.6,0.5,8.6,0.5s6.8,0,8.6-0.5
			c0.9-0.3,1.6-1,1.9-1.9c0.3-1.7,0.5-3.5,0.5-5.3C29,16.2,28.8,14.5,28.5,12.7z M15.8,21.3v-6.5l5.7,3.3
			C21.5,18.1,15.8,21.3,15.8,21.3z"/>
	</g>
</g>
</svg>
